<svg width="421" height="492" viewBox="0 0 421 492" fill="none" xmlns="http://www.w3.org/2000/svg">
<path d="M61.9563 187.884C96.1738 187.884 137.681 215.198 137.681 248.89C137.681 282.582 96.1737 309.896 61.9562 309.896C27.7388 309.896 -4.43169e-06 282.582 0 248.89C4.43169e-06 215.197 27.7388 187.884 61.9563 187.884Z" fill="black"/>
<path d="M312.565 383.46C334.892 458.691 231.757 504.46 190.619 437.579C180.092 420.46 173.619 400.704 165.338 388.821C166.799 387.766 168.248 386.705 169.67 385.62C202.937 360.244 241.891 313.557 241.895 248.038C241.893 182.514 202.938 135.832 169.67 110.456C159.782 102.913 148.919 96.091 137.356 90.1552C143.457 83.6342 148.362 75.7751 151.551 66.8056C177.845 -7.13531 288.26 16.2619 282.11 94.4745C279.098 132.785 308.898 165.788 347.428 166.81C426.092 168.888 437.901 280.816 361.394 299.158C323.914 308.141 301.629 346.609 312.565 383.46Z" fill="black"/>
</svg>
