<?xml version="1.0" encoding="utf-8"?>
<!-- Generator: Adobe Illustrator 25.2.1, SVG Export Plug-In . SVG Version: 6.00 Build 0)  -->
<svg version="1.1" id="图层_1" xmlns="http://www.w3.org/2000/svg" xmlns:xlink="http://www.w3.org/1999/xlink" x="0px" y="0px"
	 viewBox="0 0 182 52" style="enable-background:new 0 0 182 52;" xml:space="preserve">
<style type="text/css">
	.st0{fill:#FFFFFF;}
</style>
<g>
	<circle class="st0" cx="16.06" cy="24.88" r="4.06"/>
	<path class="st0" d="M19.82,15.46c1.07-1.31,1.24-1.73,1.38-2.05c0.45-1.05,0.69-2.12,1.67-2.84c1.5-1.09,3.53-0.75,4.89,0.4
		c0.5,0.42,0.78,1.19,0.93,1.8c0.46,1.9-0.57,3.95,0.41,5.75c0.76,1.39,2.31,1.91,3.82,1.98c0,0,4.55-0.25,4.76,3.78
		c0,0,0.56,3.35-3.35,4.06c-0.78,0.14-1.54,0.11-2.31,0.38c-1.5,0.54-2.64,1.78-2.55,3.45c0.05,0.93,0.19,1.86,0.41,2.77
		c0.15,0.61,0.28,1.12,0.19,1.75c-0.4,2.94-4.7,4.18-6.59,1.84c-1.06-1.31-1.57-3.01-3.02-4.01c0,0,2.68-1.49,4.31-5.58
		c0.29-1.25,0.44-2.56,0.48-3.85c0.06-1.97-0.34-3.97-1.37-5.67C22.92,17.87,21.55,16.13,19.82,15.46z"/>
</g>
<g>
	<path class="st0" d="M75.37,20.86c0,0-2.15-1.91-7.94-1.98c-1.94-0.02-4.08,0.11-5.79,1.13c-1.97,1.17-2.72,3.61-2.08,5.78
		c0.41,1.38,1.38,2.55,2.7,3.12c1.97,0.86,4.24,1.06,6.34,1.45c1.1,0.21,2.22,0.41,3.12,1.09c1.35,1.02-0.97,1.84-1.8,1.91
		c-3.11,0.26-6.68-0.02-9.35-1.78c0,0-1.56,3.3-1.59,3.35c-0.15,0.33,1.57,1.21,1.8,1.32c0.79,0.39,1.63,0.68,2.49,0.87
		c1.5,0.34,3.05,0.43,4.59,0.45c1.34,0.02,2.69-0.02,3.99-0.36c1.99-0.53,3.86-1.97,4.39-4.04c0,0,1.09-4.24-3.49-6.14
		c-0.77-0.32-1.76-0.38-2.57-0.55c-1.55-0.33-3.1-0.65-4.66-0.93c-0.73-0.13-1.67-0.4-1.9-1.23c-0.27-1,1.52-1.5,2.22-1.57
		c1.38-0.14,2.87-0.03,4.24,0.19c1.25,0.2,2.57,0.55,3.58,1.35L75.37,20.86z"/>
	<path class="st0" d="M92.07,19.78c-1.34-0.63-2.83-0.91-4.3-0.91c-1.05,0-2.04,0.11-2.99,0.37c-2.43,0.67-4.48,2.42-5.56,4.69
		c-0.95,2.01-0.97,4.13-0.59,6.27c0.18,0.98,0.44,1.95,0.9,2.83c1.29,2.5,4.01,4.04,6.8,4.4c3.27,0.42,6.75-0.69,8.8-3.36
		c0.88-1.15,1.46-2.52,1.66-3.96C97.37,26.08,95.98,21.61,92.07,19.78z M88.96,33.32c-1.22,0.36-2.56,0.26-3.69-0.34
		c-2.64-1.41-3.31-5.24-1.84-7.72c0.17-0.29,0.36-0.55,0.57-0.79c0.95-1.07,2.3-1.64,3.78-1.6c0,0,4.41-0.13,4.73,5.31
		C92.66,30.54,91.29,32.64,88.96,33.32z"/>
	<rect x="99.76" y="12.07" class="st0" width="4.94" height="25.51"/>
	<polygon class="st0" points="106.4,19.23 113.31,37.13 119.95,37.13 126.8,19.23 122.6,19.23 116.91,33.56 111.3,19.23 	"/>
	<path class="st0" d="M162.16,19.23v1.87c-3.56-3.49-7.94-1.87-7.94-1.87c-6.39,2.51-6.18,8.94-6.18,8.94
		c-0.06,5.02,3.65,9.34,8.85,9.21c1.31-0.03,2.72-0.28,3.84-0.97c0.16-0.1,1.46-0.95,1.35-1.23c0,0,0.71,1.94,0.71,1.94h3.88V19.23
		H162.16z M162.06,29.51c-0.36,1.53-1.36,2.76-2.79,3.4c-1.17,0.53-2.52,0.64-3.73,0.15c-2.76-1.13-3.99-5.14-2.54-7.68
		c0.28-0.5,0.65-0.93,1.08-1.29c1.32-1.1,3.19-1.51,4.85-0.92c1.14,0.4,2.01,1.12,2.52,2.22C162.05,26.67,162.39,28.12,162.06,29.51
		z"/>
	<path class="st0" d="M146,26.98c-0.07-1.14-0.37-2.27-0.9-3.28c-1.63-3.16-4.77-4.71-8.22-4.8c-4.21-0.11-8.09,2.42-9.1,6.45
		c-0.11,0.42-0.18,0.87-0.22,1.32c-0.02,0.24-0.04,0.48-0.05,0.71c-0.14,3.02,0.5,5.79,2.88,7.82c1.99,1.7,4.69,2.49,7.27,2.38
		c5.93-0.25,7.76-4.51,7.76-4.51s-3.53-2.01-3.53-2.01c0.1,0.06-1.69,1.59-1.9,1.71c-0.56,0.33-1.16,0.53-1.8,0.6
		c-2.3,0.22-4.79-0.59-5.83-2.8c-0.03-0.07-0.32-0.96-0.35-0.96c0.02,0,13.98,0,13.98,0C145.98,29.61,146.02,27.16,146,26.98z
		 M131.95,26.08c0,0,1.48-3.21,5.01-3.17c3.53,0.04,4.59,3.17,4.59,3.17H131.95z"/>
	<circle class="st0" cx="172.76" cy="34.95" r="2.25"/>
</g>
</svg>
