<svg width="25" height="30" viewBox="0 0 25 30" fill="none" xmlns="http://www.w3.org/2000/svg">
<path d="M3.67912 11.4563C5.71103 11.4563 8.17583 13.1218 8.17583 15.1762C8.17583 17.2306 5.71103 18.8961 3.67911 18.8961C1.6472 18.8961 -2.63164e-07 17.2306 0 15.1762C2.63165e-07 13.1217 1.6472 11.4563 3.67912 11.4563Z" fill="black"/>
<path d="M18.5608 23.3818C19.8867 27.9691 13.7623 30.7598 11.3194 26.6817C10.6943 25.6379 10.3099 24.4333 9.81813 23.7087C9.90489 23.6444 9.99094 23.5797 10.0754 23.5135C12.0509 21.9662 14.364 19.1194 14.3643 15.1244C14.3642 11.129 12.0509 8.28253 10.0754 6.73521C9.4882 6.27527 8.84313 5.8593 8.15649 5.49736C8.51879 5.09974 8.81006 4.62052 8.99943 4.0736C10.5608 -0.434989 17.1175 0.99167 16.7523 5.76073C16.5735 8.09674 18.3431 10.1091 20.6311 10.1714C25.3023 10.2981 26.0036 17.123 21.4604 18.2414C19.2348 18.7892 17.9114 21.1348 18.5608 23.3818Z" fill="black"/>
</svg>
