<svg width="160" height="31" viewBox="0 0 160 31" fill="none" xmlns="http://www.w3.org/2000/svg">
<g clip-path="url(#clip0_51_272)">
<path d="M9.53892 3.92324C11.2268 -0.0347793 17.1993 1.55657 16.6714 5.82364L16.4166 7.88432C16.159 9.96793 17.6905 11.8491 19.7932 12.0316L21.8729 12.2111C26.1791 12.5847 26.5024 18.7268 22.2589 19.5459L20.2101 19.9414C18.138 20.3415 16.8128 22.3714 17.288 24.4169L17.758 26.4392C18.7316 30.6281 12.9586 32.8326 10.8639 29.0719L9.85255 27.256C9.49542 26.6149 8.97625 26.1221 8.37508 25.7971C11.2976 23.7987 13.2155 20.4519 13.2156 16.6579C13.2155 12.6143 11.038 9.0772 7.78638 7.14046C8.17875 6.78945 8.50323 6.35043 8.72347 5.8342L9.53892 3.92324Z" fill="black"/>
<path d="M7.81208 16.3045C7.81208 18.4501 6.06327 20.1894 3.90603 20.1894C1.74879 20.1894 -1.88592e-07 18.4501 0 16.3045C1.88592e-07 14.159 1.74879 12.4197 3.90603 12.4197C6.06327 12.4197 7.81208 14.159 7.81208 16.3045Z" fill="black"/>
<path d="M60.4338 12.3583C60.0841 12.0882 59.6579 11.8518 59.1553 11.6492C58.6746 11.4466 58.15 11.2891 57.5818 11.1765C57.0136 11.0414 56.4345 10.9401 55.8444 10.8726C55.2543 10.805 54.6752 10.7713 54.107 10.7713C53.5825 10.7713 53.0908 10.805 52.6318 10.8726C52.1729 10.9176 51.7795 10.9964 51.4517 11.109C51.102 11.2215 50.8398 11.3791 50.6649 11.5817C50.4902 11.7618 50.3918 11.9644 50.37 12.1894C50.37 12.392 50.4355 12.5946 50.5666 12.7972C50.7196 12.9773 50.9272 13.1349 51.1895 13.27C51.714 13.5175 52.3915 13.7201 53.2219 13.8777C54.0742 14.0353 54.9484 14.2041 55.8444 14.3842C56.7405 14.5418 57.6146 14.7331 58.4669 14.9582C59.3411 15.1608 60.0513 15.4422 60.5977 15.8024C61.4937 16.3651 62.1275 17.0854 62.499 17.9634C62.8706 18.8413 63.0017 19.7304 62.8924 20.6308C62.805 21.5312 62.4772 22.3641 61.9089 23.1295C61.3626 23.8948 60.5977 24.4576 59.6142 24.8177C58.8931 25.0878 58.0517 25.3017 57.0901 25.4593C56.1285 25.6168 55.1233 25.6957 54.0742 25.6957C53.2875 25.6957 52.5007 25.6506 51.714 25.5606C50.9491 25.4705 50.206 25.3242 49.4848 25.1217C48.7855 24.9191 48.119 24.6602 47.4852 24.345C46.8733 24.0299 46.3378 23.6472 45.8789 23.197L47.4852 19.7191C47.8567 20.0568 48.3265 20.3495 48.8948 20.597C49.4848 20.8222 50.1186 21.0248 50.7961 21.2049C51.4736 21.3624 52.1729 21.4862 52.8941 21.5762C53.6153 21.6438 54.3037 21.6776 54.9593 21.6776C55.5931 21.6776 56.1504 21.6438 56.6312 21.5762C57.1338 21.5087 57.5381 21.3962 57.8441 21.2386C58.4341 20.9234 58.7182 20.6083 58.6964 20.2932C58.6964 19.9555 58.4778 19.6516 58.0407 19.3815C57.5381 19.0663 56.8388 18.8187 55.9428 18.6387C55.0686 18.4586 54.1398 18.2785 53.1564 18.0984C52.1729 17.9183 51.2114 17.7045 50.2716 17.4569C49.3319 17.1868 48.567 16.8153 47.9769 16.3426C47.2776 15.7799 46.7749 15.082 46.469 14.2491C46.163 13.3937 46.0537 12.5384 46.1412 11.683C46.2286 10.8276 46.5127 10.0397 46.9935 9.31938C47.4961 8.57656 48.1845 8.03626 49.0587 7.69864C49.758 7.42852 50.5448 7.22592 51.4189 7.09083C52.315 6.93328 53.2547 6.85449 54.2381 6.85449C54.9593 6.85449 55.6805 6.89952 56.4017 6.98956C57.1229 7.0796 57.8113 7.21469 58.4669 7.39477C59.1444 7.55232 59.7782 7.76615 60.3682 8.03626C60.9802 8.30644 61.5156 8.63284 61.9745 9.01552L60.4338 12.3583Z" fill="black"/>
<path d="M64.9265 16.3088C64.9265 14.8906 65.1451 13.6075 65.5822 12.4595C66.0192 11.3114 66.6311 10.321 67.4179 9.48815C68.2266 8.65522 69.1882 8.01372 70.3023 7.56347C71.4171 7.11328 72.6627 6.88818 74.0397 6.88818C75.3944 6.88818 76.6291 7.11328 77.7439 7.56347C78.8804 8.01372 79.8529 8.65522 80.6613 9.48815C81.4698 10.321 82.0933 11.3114 82.5304 12.4595C82.9675 13.6075 83.1857 14.8906 83.1857 16.3088C83.1857 17.7269 82.9675 19.01 82.5304 20.158C82.0933 21.306 81.4698 22.2965 80.6613 23.1294C79.8529 23.9398 78.8804 24.5701 77.7439 25.0203C76.6291 25.4704 75.3944 25.6956 74.0397 25.6956C72.6627 25.6956 71.4171 25.4704 70.3023 25.0203C69.1882 24.5701 68.2266 23.9398 67.4179 23.1294C66.6311 22.2965 66.0192 21.306 65.5822 20.158C65.1451 19.01 64.9265 17.7269 64.9265 16.3088ZM69.1225 16.3088C69.1225 17.0741 69.2425 17.7832 69.483 18.436C69.7236 19.0888 70.0516 19.6628 70.4663 20.158C70.9034 20.6307 71.4171 21.0134 72.0074 21.306C72.6193 21.5762 73.297 21.7112 74.0397 21.7112C74.7825 21.7112 75.4493 21.5762 76.0396 21.306C76.6515 21.0134 77.1652 20.6307 77.5799 20.158C78.017 19.6628 78.345 19.0888 78.5632 18.436C78.8038 17.7832 78.9244 17.0741 78.9244 16.3088C78.9244 15.5434 78.8038 14.8343 78.5632 14.1816C78.345 13.5062 78.017 12.9322 77.5799 12.4595C77.1652 11.9643 76.6515 11.5816 76.0396 11.3114C75.4493 11.0413 74.7825 10.9063 74.0397 10.9063C73.297 10.9063 72.6193 11.0413 72.0074 11.3114C71.4171 11.5816 70.9034 11.9643 70.4663 12.4595C70.0516 12.9322 69.7236 13.5062 69.483 14.1816C69.2425 14.8343 69.1225 15.5434 69.1225 16.3088Z" fill="black"/>
<path d="M86.1426 0H90.4038V25.3241H86.1426V0Z" fill="black"/>
<path d="M97.2875 7.25952L102.795 22.015L108.335 7.25952H112.564L105.778 25.324H99.4513L92.6982 7.25952H97.2875Z" fill="black"/>
<path d="M122.38 6.88818C123.582 6.88818 124.686 7.06829 125.691 7.42844C126.696 7.76607 127.581 8.25008 128.346 8.88035C129.133 9.51061 129.778 10.276 130.28 11.1764C130.805 12.0768 131.166 13.0898 131.362 14.2153C131.472 14.7555 131.526 15.3183 131.526 15.9036C131.526 16.4663 131.526 17.0291 131.526 17.5918H117.66C117.791 18.1546 118.009 18.6836 118.315 19.1788C118.621 19.6741 118.993 20.1017 119.43 20.4619C119.867 20.8221 120.359 21.1147 120.905 21.3398C121.452 21.5424 122.03 21.6437 122.642 21.6437C123.866 21.6437 124.86 21.4186 125.625 20.9684C126.412 20.5182 127.057 19.9329 127.56 19.2126L131.002 21.2048C130.259 22.6229 129.144 23.7259 127.658 24.5138C126.194 25.3017 124.544 25.6956 122.708 25.6956C121.331 25.6956 120.064 25.4704 118.906 25.0203C117.747 24.5701 116.742 23.9285 115.889 23.0956C115.059 22.2628 114.403 21.2723 113.923 20.1243C113.464 18.9762 113.234 17.6932 113.234 16.275C113.234 14.8793 113.453 13.6075 113.89 12.4595C114.327 11.289 114.95 10.2985 115.758 9.48815C116.567 8.65522 117.529 8.01372 118.643 7.56347C119.757 7.11328 121.004 6.88818 122.38 6.88818ZM127.101 14.2153C126.773 13.2924 126.216 12.5158 125.429 11.8855C124.664 11.2552 123.626 10.9401 122.314 10.9401C121.222 10.9401 120.282 11.2552 119.495 11.8855C118.731 12.5158 118.184 13.2924 117.857 14.2153H127.101Z" fill="black"/>
<path d="M133.531 16.275C133.531 14.8793 133.76 13.6075 134.219 12.4595C134.678 11.3114 135.29 10.3322 136.054 9.52191C136.819 8.68904 137.704 8.04748 138.71 7.59729C139.715 7.12458 140.753 6.88818 141.824 6.88818C143.004 6.88818 144.064 7.09075 145.004 7.49596C145.965 7.87863 146.807 8.43016 147.528 9.15046V7.2596H151.789V25.3241H148.183L147.528 23.3995C146.807 24.1199 145.965 24.6826 145.004 25.0878C144.064 25.493 143.004 25.6956 141.824 25.6956C140.753 25.6956 139.715 25.4704 138.71 25.0203C137.704 24.5475 136.819 23.8947 136.054 23.0619C135.29 22.229 134.678 21.2385 134.219 20.0905C133.76 18.9199 133.531 17.6481 133.531 16.275ZM137.792 16.275C137.792 17.0404 137.901 17.7494 138.12 18.4022C138.36 19.055 138.688 19.629 139.103 20.1243C139.54 20.597 140.054 20.9684 140.644 21.2385C141.256 21.5086 141.933 21.6437 142.676 21.6437C143.398 21.6437 144.053 21.5086 144.643 21.2385C145.255 20.9684 145.769 20.597 146.184 20.1243C146.621 19.629 146.949 19.055 147.167 18.4022C147.408 17.7494 147.528 17.0404 147.528 16.275C147.528 15.5322 147.408 14.8343 147.167 14.1816C146.949 13.5288 146.621 12.966 146.184 12.4932C145.769 11.9981 145.255 11.6154 144.643 11.3453C144.053 11.0751 143.398 10.9401 142.676 10.9401C141.933 10.9401 141.256 11.0751 140.644 11.3453C140.054 11.6154 139.54 11.9981 139.103 12.4932C138.688 12.966 138.36 13.5288 138.12 14.1816C137.901 14.8343 137.792 15.5322 137.792 16.275Z" fill="black"/>
<path d="M155.739 23.1293C155.739 22.4765 155.935 21.9475 156.328 21.5423C156.722 21.1372 157.236 20.9346 157.869 20.9346C158.503 20.9346 159.017 21.1372 159.41 21.5423C159.803 21.9475 160 22.4765 160 23.1293C160 23.7821 159.803 24.3111 159.41 24.7163C159.017 25.1215 158.503 25.324 157.869 25.324C157.236 25.324 156.722 25.1215 156.328 24.7163C155.935 24.3111 155.739 23.7821 155.739 23.1293Z" fill="black"/>
</g>
<defs>
<clipPath id="clip0_51_272">
<rect width="160" height="31" fill="white"/>
</clipPath>
</defs>
</svg>
