<svg width="2361" height="450" viewBox="0 0 2361 450" fill="none" xmlns="http://www.w3.org/2000/svg">
<path d="M140.757 56.9504C165.663 -0.50467 253.795 22.5956 246.005 84.5369L242.246 114.45C238.445 144.696 261.044 172.003 292.072 174.653L322.76 177.258C386.304 182.682 391.074 271.841 328.456 283.731L298.224 289.472C267.647 295.28 248.092 324.747 255.105 354.439L262.04 383.795C276.406 444.601 191.218 476.603 160.308 422.012L145.385 395.652C140.115 386.345 132.454 379.192 123.583 374.474C166.709 345.465 195.01 296.883 195.011 241.808C195.009 183.111 162.878 131.766 114.896 103.652C120.686 98.5567 125.474 92.1839 128.724 84.6902L140.757 56.9504Z" fill="black"/>
<path d="M115.277 236.68C115.277 267.826 89.4711 293.074 57.6383 293.074C25.8056 293.074 -2.78291e-06 267.826 0 236.68C2.78291e-06 205.535 25.8056 180.287 57.6383 180.287C89.4711 180.287 115.277 205.535 115.277 236.68Z" fill="black"/>
<path d="M891.776 179.393C886.616 175.472 880.327 172.041 872.91 169.1C865.816 166.159 858.076 163.872 849.691 162.238C841.307 160.277 832.761 158.807 824.054 157.827C815.346 156.846 806.801 156.356 798.416 156.356C790.676 156.356 783.42 156.846 776.648 157.827C769.876 158.48 764.071 159.624 759.234 161.258C754.074 162.891 750.204 165.179 747.624 168.12C745.045 170.734 743.593 173.675 743.271 176.942C743.271 179.883 744.238 182.824 746.173 185.765C748.431 188.379 751.494 190.666 755.364 192.627C763.104 196.221 773.101 199.162 785.355 201.449C797.932 203.737 810.832 206.187 824.054 208.802C837.276 211.089 850.175 213.866 862.752 217.134C875.651 220.075 886.132 224.159 894.194 229.388C907.416 237.557 916.768 248.013 922.251 260.757C927.733 273.501 929.668 286.408 928.055 299.478C926.765 312.549 921.928 324.639 913.543 335.749C905.481 346.859 894.194 355.028 879.682 360.256C869.04 364.177 856.625 367.282 842.435 369.569C828.246 371.856 813.412 373 797.932 373C786.323 373 774.713 372.346 763.104 371.039C751.817 369.732 740.852 367.608 730.21 364.668C719.891 361.727 710.055 357.969 700.703 353.394C691.673 348.82 683.772 343.265 677 336.729L700.703 286.244C706.185 291.146 713.118 295.394 721.503 298.988C730.21 302.256 739.562 305.197 749.559 307.811C759.556 310.098 769.876 311.895 780.518 313.202C791.16 314.183 801.318 314.673 810.993 314.673C820.345 314.673 828.568 314.183 835.663 313.202C843.08 312.222 849.046 310.588 853.561 308.301C862.268 303.726 866.46 299.152 866.138 294.577C866.138 289.675 862.913 285.264 856.463 281.343C849.046 276.768 838.727 273.174 825.505 270.56C812.605 267.946 798.9 265.332 784.388 262.717C769.876 260.103 755.687 256.999 741.82 253.405C727.953 249.484 716.666 244.092 707.959 237.23C697.639 229.061 690.222 218.931 685.707 206.841C681.192 194.424 679.58 182.007 680.87 169.59C682.16 157.173 686.352 145.736 693.447 135.28C700.864 124.497 711.022 116.654 723.922 111.753C734.241 107.832 745.851 104.891 758.75 102.93C771.972 100.643 785.839 99.4993 800.351 99.4993C810.993 99.4993 821.635 100.153 832.277 101.46C842.919 102.767 853.077 104.728 862.752 107.342C872.749 109.629 882.101 112.733 890.808 116.654C899.838 120.576 907.739 125.314 914.511 130.869L891.776 179.393Z" fill="black"/>
<path d="M958.073 236.74C958.073 216.154 961.298 197.528 967.748 180.863C974.197 164.198 983.227 149.821 994.836 137.731C1006.77 125.64 1020.96 116.328 1037.4 109.792C1053.85 103.257 1072.23 99.9895 1092.55 99.9895C1112.54 99.9895 1130.76 103.257 1147.21 109.792C1163.98 116.328 1178.33 125.64 1190.26 137.731C1202.19 149.821 1211.39 164.198 1217.84 180.863C1224.29 197.528 1227.51 216.154 1227.51 236.74C1227.51 257.326 1224.29 275.951 1217.84 292.616C1211.39 309.281 1202.19 323.659 1190.26 335.749C1178.33 347.513 1163.98 356.662 1147.21 363.197C1130.76 369.732 1112.54 373 1092.55 373C1072.23 373 1053.85 369.732 1037.4 363.197C1020.96 356.662 1006.77 347.513 994.836 335.749C983.227 323.659 974.197 309.281 967.748 292.616C961.298 275.951 958.073 257.326 958.073 236.74ZM1019.99 236.74C1019.99 247.85 1021.76 258.143 1025.31 267.619C1028.86 277.095 1033.7 285.428 1039.82 292.616C1046.27 299.478 1053.85 305.033 1062.56 309.281C1071.59 313.202 1081.59 315.163 1092.55 315.163C1103.51 315.163 1113.35 313.202 1122.06 309.281C1131.09 305.033 1138.67 299.478 1144.79 292.616C1151.24 285.428 1156.08 277.095 1159.3 267.619C1162.85 258.143 1164.63 247.85 1164.63 236.74C1164.63 225.63 1162.85 215.337 1159.3 205.861C1156.08 196.058 1151.24 187.725 1144.79 180.863C1138.67 173.675 1131.09 168.12 1122.06 164.198C1113.35 160.277 1103.51 158.317 1092.55 158.317C1081.59 158.317 1071.59 160.277 1062.56 164.198C1053.85 168.12 1046.27 173.675 1039.82 180.863C1033.7 187.725 1028.86 196.058 1025.31 205.861C1021.76 215.337 1019.99 225.63 1019.99 236.74Z" fill="black"/>
<path d="M1271.14 0H1334.02V367.608H1271.14V0Z" fill="black"/>
<path d="M1435.6 105.381L1516.87 319.574L1598.62 105.381H1661.02L1560.89 367.608H1467.53L1367.88 105.381H1435.6Z" fill="black"/>
<path d="M1805.87 99.9895C1823.61 99.9895 1839.89 102.604 1854.73 107.832C1869.56 112.733 1882.62 119.759 1893.91 128.908C1905.52 138.057 1915.03 149.167 1922.45 162.238C1930.19 175.308 1935.51 190.013 1938.41 206.351C1940.03 214.193 1940.83 222.362 1940.83 230.858C1940.83 239.027 1940.83 247.196 1940.83 255.365H1736.22C1738.15 263.534 1741.37 271.213 1745.89 278.402C1750.4 285.591 1755.89 291.799 1762.34 297.028C1768.79 302.256 1776.04 306.504 1784.1 309.771C1792.17 312.712 1800.71 314.183 1809.74 314.183C1827.8 314.183 1842.47 310.915 1853.76 304.38C1865.37 297.845 1874.88 289.349 1882.3 278.892L1933.09 307.811C1922.13 328.397 1905.68 344.408 1883.75 355.845C1862.15 367.282 1837.8 373 1810.71 373C1790.39 373 1771.69 369.732 1754.6 363.197C1737.51 356.662 1722.67 347.349 1710.09 335.259C1697.84 323.169 1688.16 308.791 1681.07 292.126C1674.3 275.461 1670.91 256.836 1670.91 236.25C1670.91 215.99 1674.14 197.528 1680.59 180.863C1687.04 163.872 1696.23 149.494 1708.16 137.731C1720.09 125.64 1734.28 116.328 1750.73 109.792C1767.17 103.257 1785.56 99.9895 1805.87 99.9895ZM1875.53 206.351C1870.69 192.954 1862.47 181.68 1850.86 172.531C1839.57 163.382 1824.25 158.807 1804.9 158.807C1788.78 158.807 1774.91 163.382 1763.3 172.531C1752.02 181.68 1743.95 192.954 1739.12 206.351H1875.53Z" fill="black"/>
<path d="M1970.41 236.25C1970.41 215.99 1973.79 197.528 1980.57 180.863C1987.34 164.198 1996.37 149.984 2007.65 138.221C2018.94 126.131 2032 116.818 2046.84 110.283C2061.67 103.421 2076.99 99.9895 2092.79 99.9895C2110.21 99.9895 2125.85 102.93 2139.71 108.812C2153.9 114.367 2166.32 122.373 2176.96 132.829V105.381H2239.84V367.608H2186.63L2176.96 339.67C2166.32 350.127 2153.9 358.296 2139.71 364.177C2125.85 370.059 2110.21 373 2092.79 373C2076.99 373 2061.67 369.732 2046.84 363.197C2032 356.335 2018.94 346.859 2007.65 334.769C1996.37 322.679 1987.34 308.301 1980.57 291.636C1973.79 274.644 1970.41 256.182 1970.41 236.25ZM2033.29 236.25C2033.29 247.36 2034.9 257.653 2038.13 267.129C2041.68 276.605 2046.51 284.937 2052.64 292.126C2059.09 298.988 2066.67 304.38 2075.38 308.301C2084.41 312.222 2094.4 314.183 2105.37 314.183C2116.01 314.183 2125.68 312.222 2134.39 308.301C2143.42 304.38 2151 298.988 2157.13 292.126C2163.58 284.937 2168.41 276.605 2171.64 267.129C2175.19 257.653 2176.96 247.36 2176.96 236.25C2176.96 225.467 2175.19 215.337 2171.64 205.861C2168.41 196.385 2163.58 188.216 2157.13 181.353C2151 174.165 2143.42 168.61 2134.39 164.689C2125.68 160.767 2116.01 158.807 2105.37 158.807C2094.4 158.807 2084.41 160.767 2075.38 164.689C2066.67 168.61 2059.09 174.165 2052.64 181.353C2046.51 188.216 2041.68 196.385 2038.13 205.861C2034.9 215.337 2033.29 225.467 2033.29 236.25Z" fill="black"/>
<path d="M2298.12 335.749C2298.12 326.273 2301.02 318.594 2306.82 312.712C2312.63 306.831 2320.21 303.89 2329.56 303.89C2338.91 303.89 2346.49 306.831 2352.29 312.712C2358.1 318.594 2361 326.273 2361 335.749C2361 345.225 2358.1 352.904 2352.29 358.786C2346.49 364.668 2338.91 367.608 2329.56 367.608C2320.21 367.608 2312.63 364.668 2306.82 358.786C2301.02 352.904 2298.12 345.225 2298.12 335.749Z" fill="black"/>
</svg>
