<svg width="182" height="52" viewBox="0 0 182 52" fill="none" xmlns="http://www.w3.org/2000/svg">
<path d="M16.06 28.9401C18.3023 28.9401 20.12 27.1223 20.12 24.8801C20.12 22.6378 18.3023 20.8201 16.06 20.8201C13.8177 20.8201 12 22.6378 12 24.8801C12 27.1223 13.8177 28.9401 16.06 28.9401Z" fill="black"/>
<path d="M19.8201 15.4601C20.8901 14.1501 21.0601 13.7301 21.2001 13.4101C21.6501 12.3601 21.8901 11.2901 22.8701 10.5701C24.3701 9.48005 26.4001 9.82005 27.7601 10.9701C28.2601 11.3901 28.5401 12.1601 28.6901 12.7701C29.1501 14.6701 28.1201 16.7201 29.1001 18.5201C29.8601 19.9101 31.4101 20.4301 32.9201 20.5001C32.9201 20.5001 37.4701 20.2501 37.6801 24.2801C37.6801 24.2801 38.2401 27.6301 34.3301 28.3401C33.5501 28.4801 32.7901 28.4501 32.0201 28.7201C30.5201 29.2601 29.3801 30.5 29.4701 32.17C29.5201 33.1 29.6601 34.0301 29.8801 34.9401C30.0301 35.5501 30.1601 36.0601 30.0701 36.6901C29.6701 39.6301 25.3701 40.8701 23.4801 38.5301C22.4201 37.2201 21.9101 35.5201 20.4601 34.5201C20.4601 34.5201 23.1401 33.0301 24.7701 28.9401C25.0601 27.6901 25.2101 26.3801 25.2501 25.0901C25.3101 23.1201 24.9101 21.1201 23.8801 19.4201C22.9201 17.8701 21.5501 16.1301 19.8201 15.4601Z" fill="black"/>
<path d="M75.37 20.86C75.37 20.86 73.22 18.95 67.43 18.88C65.49 18.86 63.35 18.99 61.64 20.01C59.67 21.18 58.92 23.62 59.56 25.79C59.97 27.17 60.94 28.34 62.26 28.91C64.23 29.77 66.5 29.97 68.6 30.36C69.7 30.57 70.82 30.77 71.72 31.45C73.07 32.47 70.75 33.29 69.92 33.36C66.81 33.62 63.24 33.34 60.57 31.58C60.57 31.58 59.01 34.88 58.98 34.93C58.83 35.26 60.55 36.14 60.78 36.25C61.57 36.64 62.41 36.93 63.27 37.12C64.77 37.46 66.32 37.55 67.86 37.57C69.2 37.59 70.55 37.55 71.85 37.21C73.84 36.68 75.71 35.24 76.24 33.17C76.24 33.17 77.33 28.93 72.75 27.03C71.98 26.71 70.99 26.65 70.18 26.48C68.63 26.15 67.08 25.83 65.52 25.55C64.79 25.42 63.85 25.15 63.62 24.32C63.35 23.32 65.14 22.82 65.84 22.75C67.22 22.61 68.71 22.72 70.08 22.94C71.33 23.14 72.65 23.49 73.66 24.29L75.37 20.86Z" fill="black"/>
<path d="M92.07 19.7801C90.73 19.1501 89.24 18.8701 87.77 18.8701C86.72 18.8701 85.73 18.9801 84.78 19.2401C82.35 19.9101 80.3 21.6601 79.22 23.9301C78.27 25.9401 78.25 28.0601 78.63 30.2001C78.81 31.1801 79.07 32.1501 79.53 33.0301C80.82 35.5301 83.54 37.0701 86.33 37.4301C89.6 37.8501 93.08 36.7401 95.13 34.0701C96.01 32.9201 96.59 31.5501 96.79 30.1101C97.37 26.0801 95.98 21.6101 92.07 19.7801ZM88.96 33.3201C87.74 33.6801 86.4 33.5801 85.27 32.9801C82.63 31.5701 81.96 27.7401 83.43 25.2601C83.6 24.9701 83.79 24.7101 84 24.4701C84.95 23.4001 86.3 22.8301 87.78 22.8701C87.78 22.8701 92.19 22.7401 92.51 28.1801C92.66 30.5401 91.29 32.6401 88.96 33.3201Z" fill="black"/>
<path d="M104.7 12.0701H99.76V37.5801H104.7V12.0701Z" fill="black"/>
<path d="M106.4 19.23L113.31 37.13H119.95L126.8 19.23H122.6L116.91 33.56L111.3 19.23H106.4Z" fill="black"/>
<path d="M162.16 19.23V21.1C158.6 17.61 154.22 19.23 154.22 19.23C147.83 21.74 148.04 28.17 148.04 28.17C147.98 33.19 151.69 37.51 156.89 37.38C158.2 37.35 159.61 37.1 160.73 36.41C160.89 36.31 162.19 35.46 162.08 35.18L162.79 37.12H166.67V19.23H162.16ZM162.06 29.51C161.7 31.04 160.7 32.27 159.27 32.91C158.1 33.44 156.75 33.55 155.54 33.06C152.78 31.93 151.55 27.92 153 25.38C153.28 24.88 153.65 24.45 154.08 24.09C155.4 22.99 157.27 22.58 158.93 23.17C160.07 23.57 160.94 24.29 161.45 25.39C162.05 26.67 162.39 28.12 162.06 29.51Z" fill="black"/>
<path d="M146 26.9802C145.93 25.8402 145.63 24.7102 145.1 23.7002C143.47 20.5402 140.33 18.9902 136.88 18.9002C132.67 18.7902 128.79 21.3202 127.78 25.3502C127.67 25.7702 127.6 26.2202 127.56 26.6702C127.54 26.9102 127.52 27.1502 127.51 27.3802C127.37 30.4002 128.01 33.1702 130.39 35.2002C132.38 36.9002 135.08 37.6902 137.66 37.5802C143.59 37.3302 145.42 33.0702 145.42 33.0702L141.89 31.0602C141.99 31.1202 140.2 32.6502 139.99 32.7702C139.43 33.1002 138.83 33.3002 138.19 33.3702C135.89 33.5902 133.4 32.7802 132.36 30.5702C132.33 30.5002 132.04 29.6102 132.01 29.6102C132.03 29.6102 145.99 29.6102 145.99 29.6102C145.98 29.6102 146.02 27.1602 146 26.9802ZM131.95 26.0802C131.95 26.0802 133.43 22.8702 136.96 22.9102C140.49 22.9502 141.55 26.0802 141.55 26.0802H131.95Z" fill="black"/>
<path d="M172.76 37.2C174.003 37.2 175.01 36.1926 175.01 34.95C175.01 33.7073 174.003 32.7 172.76 32.7C171.517 32.7 170.51 33.7073 170.51 34.95C170.51 36.1926 171.517 37.2 172.76 37.2Z" fill="black"/>
</svg>
